<svg height='300px' width='300px'  fill="#000000" xmlns="http://www.w3.org/2000/svg" viewBox="0 0 512 512" x="0px" y="0px"><path d="M434.306,29.167A40.077,40.077,0,0,0,404.64,16H360a40.045,40.045,0,0,0-40,40v96A40.068,40.068,0,0,0,352,191.2V304a8.009,8.009,0,0,1-8,8H302.624a23.943,23.943,0,0,0-4.755-24,23.943,23.943,0,0,0,0-32,23.943,23.943,0,0,0,0-32,23.942,23.942,0,0,0,.014-31.984A24.007,24.007,0,0,0,280,152h-8V104a88,88,0,0,0-176,0v48H88a23.984,23.984,0,0,0-17.869,40,23.943,23.943,0,0,0,0,32,23.943,23.943,0,0,0,0,32,23.943,23.943,0,0,0,0,32,23.942,23.942,0,0,0-.014,31.984A24.007,24.007,0,0,0,88,360h8v48a88,88,0,0,0,176,0V360h88a40.045,40.045,0,0,0,40-40V191.688a39.845,39.845,0,0,0,34.84-35.712l9.6-96A40.051,40.051,0,0,0,434.306,29.167ZM336,152V56a24.028,24.028,0,0,1,24-24h44.64a24,24,0,0,1,23.88,26.384L427.159,72H414.605a23.992,23.992,0,0,0-24-24H376a24.027,24.027,0,0,0-24,24v64a24.151,24.151,0,0,0,.341,4,24.033,24.033,0,0,0-.341,4v30.624A24.039,24.039,0,0,1,336,152Zm77.363-64h12.195l-3.2,32H410.694ZM80,304a8.009,8.009,0,0,1,8-8H280a8,8,0,0,1,0,16H88A8.009,8.009,0,0,1,80,304Zm0-32a8.009,8.009,0,0,1,8-8H280a8,8,0,0,1,0,16H88A8.009,8.009,0,0,1,80,272Zm0-32a8.009,8.009,0,0,1,8-8H280a8,8,0,0,1,0,16H88A8.009,8.009,0,0,1,80,240Zm0-32a8.009,8.009,0,0,1,8-8H280a8,8,0,0,1,0,16H88A8.009,8.009,0,0,1,80,208Zm32-104a72,72,0,1,1,144,0v48H240V104a56,56,0,0,0-112,0v48H112Zm80,48H176V104a8,8,0,1,1,16,0Zm8.967-64.988A24.01,24.01,0,0,0,160,104v48H144V104a40,40,0,0,1,80,0v48H208V104A23.906,23.906,0,0,0,200.967,87.012ZM82.326,170.347A7.989,7.989,0,0,1,88,168H280a8,8,0,1,1,0,16H88a8.009,8.009,0,0,1-5.674-13.653ZM256,408a72,72,0,1,1-144,0V360h16v48a56,56,0,0,0,112,0V360h16Zm-80-48h16v48a8,8,0,1,1-16,0Zm-8.967,64.987A24.009,24.009,0,0,0,208,408V360h16v48a40,40,0,0,1-80,0V360h16v48A23.9,23.9,0,0,0,167.033,424.987ZM88,344a8,8,0,1,1,0-16H280a8,8,0,1,1,0,16Zm296-24a24.027,24.027,0,0,1-24,24H302.639a24.068,24.068,0,0,0-.015-16H344a24.027,24.027,0,0,0,24-24V144a8,8,0,0,1,16,0Zm-8-200a23.885,23.885,0,0,0-8,1.376V72a8.009,8.009,0,0,1,8-8h14.61a8.009,8.009,0,0,1,7.977,8.665l-4.626,55.441A23.942,23.942,0,0,0,376,120Zm24,55.475V154.93A24.006,24.006,0,0,0,409.192,138l.167-2h11.4l-1.839,18.387A23.9,23.9,0,0,1,400,175.475Z"></path></svg>